<?xml version="1.0" encoding="us-ascii" standalone="no"?><svg xmlns="http://www.w3.org/2000/svg" xmlns:xlink="http://www.w3.org/1999/xlink" contentStyleType="text/css" height="215px" preserveAspectRatio="none" style="width:568px;height:215px;background:#FFFFFF;" version="1.1" viewBox="0 0 568 215" width="568px" zoomAndPan="magnify"><defs/><g><!--entity A--><g id="elem_A"><ellipse cx="14" cy="148.2422" fill="#F1F1F1" rx="8" ry="8" style="stroke:#181818;stroke-width:0.5;"/><text fill="#000000" font-family="sans-serif" font-size="14" lengthAdjust="spacing" textLength="10" x="9" y="178.7773">A</text></g><!--entity B--><g id="elem_B"><ellipse cx="138" cy="94.2422" fill="#F1F1F1" rx="8" ry="8" style="stroke:#181818;stroke-width:0.5;"/><text fill="#000000" font-family="sans-serif" font-size="14" lengthAdjust="spacing" textLength="8" x="134" y="124.7773">B</text></g><!--entity C--><g id="elem_C"><ellipse cx="306" cy="23.2422" fill="#F1F1F1" rx="8" ry="8" style="stroke:#181818;stroke-width:0.5;"/><text fill="#000000" font-family="sans-serif" font-size="14" lengthAdjust="spacing" textLength="10" x="301" y="53.7773">C</text></g><!--entity D--><g id="elem_D"><ellipse cx="430" cy="23.2422" fill="#F1F1F1" rx="8" ry="8" style="stroke:#181818;stroke-width:0.5;"/><text fill="#000000" font-family="sans-serif" font-size="14" lengthAdjust="spacing" textLength="10" x="425" y="53.7773">D</text></g><!--entity E--><g id="elem_E"><ellipse cx="554" cy="105.2422" fill="#F1F1F1" rx="8" ry="8" style="stroke:#181818;stroke-width:0.5;"/><text fill="#000000" font-family="sans-serif" font-size="14" lengthAdjust="spacing" textLength="8" x="550" y="135.7773">E</text></g><!--entity F--><g id="elem_F"><ellipse cx="222" cy="176.2422" fill="#F1F1F1" rx="8" ry="8" style="stroke:#181818;stroke-width:0.5;"/><text fill="#000000" font-family="sans-serif" font-size="14" lengthAdjust="spacing" textLength="8" x="218" y="206.7773">F</text></g><!--link A to B--><g id="link_A_B"><path codeLine="10" d="M22.63,144.8622 C44.44,135.2122 101.3833,110.0103 123.5733,100.1903 " fill="none" id="A-to-B" style="stroke:#181818;stroke-width:1.0;"/><polygon fill="#181818" points="129.06,97.7622,119.2112,97.7465,124.4877,99.7856,122.4486,105.0622,129.06,97.7622" style="stroke:#181818;stroke-width:1.0;"/><text fill="#000000" font-family="sans-serif" font-size="13" lengthAdjust="spacing" textLength="8" x="72" y="116.1905">3</text></g><!--link A to F--><g id="link_A_F"><path codeLine="11" d="M22.82,149.3022 C55.45,153.7422 174.5747,169.9337 207.2247,174.3737 " fill="none" id="A-to-F" style="stroke:#181818;stroke-width:1.0;"/><polygon fill="#181818" points="213.17,175.1822,204.7911,170.0059,208.2156,174.5084,203.7131,177.933,213.17,175.1822" style="stroke:#181818;stroke-width:1.0;"/><text fill="#000000" font-family="sans-serif" font-size="13" lengthAdjust="spacing" textLength="8" x="72" y="152.4305">1</text></g><!--link B to E--><g id="link_B_E"><path codeLine="12" d="M146.9,94.4522 C198.99,95.8322 486.6721,103.4829 539.0221,104.8729 " fill="none" id="B-to-E" style="stroke:#181818;stroke-width:1.0;"/><polygon fill="#181818" points="545.02,105.0322,536.1293,100.7947,540.0218,104.8995,535.917,108.7919,545.02,105.0322" style="stroke:#181818;stroke-width:1.0;"/><text fill="#000000" font-family="sans-serif" font-size="13" lengthAdjust="spacing" textLength="8" x="364" y="96.8205">3</text></g><!--link B to C--><g id="link_B_C"><path codeLine="13" d="M146.56,91.0022 C174.09,79.2322 263.2734,41.0917 291.4934,29.0217 " fill="none" id="B-to-C" style="stroke:#181818;stroke-width:1.0;"/><polygon fill="#181818" points="297.01,26.6622,287.1621,26.5237,292.4128,28.6284,290.3081,33.8792,297.01,26.6622" style="stroke:#181818;stroke-width:1.0;"/><text fill="#000000" font-family="sans-serif" font-size="13" lengthAdjust="spacing" textLength="8" x="218" y="44.8005">3</text></g><!--link C to D--><g id="link_C_D"><path codeLine="14" d="M314.63,23.2422 C336.44,23.2422 392.87,23.2422 415.06,23.2422 " fill="none" id="C-to-D" style="stroke:#181818;stroke-width:1.0;"/><polygon fill="#181818" points="421.06,23.2422,412.06,19.2422,416.06,23.2422,412.06,27.2422,421.06,23.2422" style="stroke:#181818;stroke-width:1.0;"/><text fill="#000000" font-family="sans-serif" font-size="13" lengthAdjust="spacing" textLength="8" x="364" y="19.8105">5</text></g><!--link D to E--><g id="link_D_E"><path codeLine="15" d="M438.63,28.3722 C460.44,43.0322 517.8898,81.6459 540.0798,96.5559 " fill="none" id="D-to-E" style="stroke:#181818;stroke-width:1.0;"/><polygon fill="#181818" points="545.06,99.9022,539.8206,91.5626,540.9098,97.1136,535.3589,98.2029,545.06,99.9022" style="stroke:#181818;stroke-width:1.0;"/><text fill="#000000" font-family="sans-serif" font-size="13" lengthAdjust="spacing" textLength="8" x="488" y="58.3505">4</text></g><!--link F to E--><g id="link_F_E"><path codeLine="16" d="M230.87,176.2022 C253.27,175.9722 319.22,174.4922 373,165.2422 C429.32,155.5522 443.34,150.9022 497,131.2422 C514.71,124.7522 529.214,117.6651 539.874,112.1351 " fill="none" id="F-to-E" style="stroke:#181818;stroke-width:1.0;"/><polygon fill="#181818" points="545.2,109.3722,535.3691,109.9659,540.7617,111.6746,539.053,117.0672,545.2,109.3722" style="stroke:#181818;stroke-width:1.0;"/><text fill="#000000" font-family="sans-serif" font-size="13" lengthAdjust="spacing" textLength="8" x="364" y="161.8105">2</text></g><!--SRC=[FSev2e1050JH_9-YCTB0m2qn46QzXxWEY8BE_L5QCNiKjKrpH3nmXcMD6CCv3J4SkwGP4fMWlw1eJMlQq8QsjAKTxMXFUn65FE-WqQBwx1yNecd7_jhGXhQF6x7_Kul_NSeD]--></g></svg>